<svg xmlns="http://www.w3.org/2000/svg" viewBox="0 0 1000 320" width="100%" height="100%">
  <defs>
    <style>
      .bg { fill: #0f0c09; }
      .grid-line { stroke: #9f814f; stroke-width: 0.5; opacity: 0.15; }
      .grid-line-strong { stroke: #d3b976; stroke-width: 1; opacity: 0.08; }
      
      /* Breathing gold glow */
      @keyframes breathe {
        0% { filter: drop-shadow(0 0 5px #e29350); opacity: 0.9; }
        50% { filter: drop-shadow(0 0 20px #b67c33) drop-shadow(0 0 40px #a88b00); opacity: 1; }
        100% { filter: drop-shadow(0 0 5px #e29350); opacity: 0.9; }
      }
      
      /* Glitch jumps (GitHub-safe) */
      @keyframes glitch-offset {
        0% { transform: translate(0, 0); opacity: 0; }
        10% { transform: translate(-6px, 3px); opacity: 0.7; }
        11% { transform: translate(6px, -3px); opacity: 0.8; }
        12% { transform: translate(-3px, 6px); opacity: 0.5; }
        13% { transform: translate(0, 0); opacity: 0; }
        100% { transform: translate(0, 0); opacity: 0; }
      }
      
      /* Blinking terminal cursor */
      @keyframes blink-cursor {
        0%, 100% { opacity: 1; }
        50% { opacity: 0; }
      }
      
      .main-title {
        font-family: 'Georgia', 'Times New Roman', serif;
        font-weight: 700;
        font-size: 82px;
        text-anchor: middle;
        dominant-baseline: central;
        letter-spacing: 8px;
      }
      
      .sub-title {
        font-family: 'Courier New', monospace;
        font-weight: 400;
        font-size: 16px;
        fill: #d3b976;
        text-anchor: middle;
        dominant-baseline: central;
        letter-spacing: 6px;
      }
      
      .cursor {
        font-family: 'Courier New', monospace;
        font-weight: 400;
        font-size: 18px;
        fill: #e29350;
        text-anchor: middle;
        dominant-baseline: central;
        animation: blink-cursor 0.9s step-end infinite;
      }
    </style>
    
    <!-- Gold gradient (fully self-contained) -->
    <linearGradient id="goldGrad" x1="0%" y1="0%" x2="100%" y2="100%">
      <stop offset="0%" stop-color="#e29350" />
      <stop offset="35%" stop-color="#f3c682" />
      <stop offset="50%" stop-color="#e29350" />
      <stop offset="75%" stop-color="#b67c33" />
      <stop offset="100%" stop-color="#9f814f" />
    </linearGradient>

    <linearGradient id="borderGrad" x1="0%" y1="0%" x2="100%" y2="0%">
      <stop offset="0%" stop-color="#e29350" stop-opacity="0.8" />
      <stop offset="30%" stop-color="#a88b00" stop-opacity="0.4" />
      <stop offset="70%" stop-color="#a88b00" stop-opacity="0.4" />
      <stop offset="100%" stop-color="#e29350" stop-opacity="0.8" />
    </linearGradient>

    <!-- Chess Knight Path -->
    <path id="knight" d="M 0,-20 C -10,-18 -15,-8 -12,0 L -8,6 L -14,8 L -14,14 L 10,14 L 10,8 L 4,6 L 6,-2 C 8,-10 4,-18 0,-20 Z M -4,-8 C -2,-10 2,-10 4,-8 C 6,-6 6,-2 4,0 C 2,2 -2,2 -4,0 C -6,-2 -6,-6 -4,-8 Z" />
  </defs>

  <!-- Background -->
  <rect class="bg" width="1000" height="320" rx="16" />
  
  <!-- Chess/Blueprint Grid -->
  <line class="grid-line" x1="80" y1="0" x2="80" y2="320" />
  <line class="grid-line" x1="200" y1="0" x2="200" y2="320" />
  <line class="grid-line-strong" x1="320" y1="0" x2="320" y2="320" />
  <line class="grid-line" x1="440" y1="0" x2="440" y2="320" />
  <line class="grid-line" x1="560" y1="0" x2="560" y2="320" />
  <line class="grid-line-strong" x1="680" y1="0" x2="680" y2="320" />
  <line class="grid-line" x1="800" y1="0" x2="800" y2="320" />
  <line class="grid-line" x1="920" y1="0" x2="920" y2="320" />
  <line class="grid-line" x1="0" y1="40" x2="1000" y2="40" />
  <line class="grid-line-strong" x1="0" y1="160" x2="1000" y2="160" />
  <line class="grid-line" x1="0" y1="280" x2="1000" y2="280" />

  <!-- Architectural Corner Brackets -->
  <g stroke="url(#borderGrad)" stroke-width="2.5" fill="none" opacity="0.7">
    <path d="M 24 38 L 24 24 L 38 24" />
    <path d="M 976 24 L 962 24 L 962 38" />
    <path d="M 38 296 L 24 296 L 24 282" />
    <path d="M 976 282 L 976 296 L 962 296" />
  </g>

  <!-- Floating Chess Knight (Left) -->
  <g transform="translate(140, 160) scale(3.5)" opacity="0.6">
    <use href="#knight" fill="url(#goldGrad)" />
    <animateTransform attributeName="transform" type="translate" values="140,160; 140,155; 140,160" dur="6s" repeatCount="indefinite" />
  </g>

  <!-- Data Particles -->
  <circle cx="850" cy="80" r="3" fill="#e29350" opacity="0.6">
    <animate attributeName="cy" values="80; 40; 80" dur="5s" repeatCount="indefinite" />
  </circle>
  <circle cx="790" cy="240" r="2" fill="#b67c33" opacity="0.5">
    <animate attributeName="cy" values="240; 200; 240" dur="7s" repeatCount="indefinite" />
  </circle>
  <circle cx="870" cy="210" r="2.5" fill="#d3b976" opacity="0.4">
    <animate attributeName="cy" values="210; 170; 210" dur="4s" repeatCount="indefinite" />
  </circle>

  <!-- ===== MAIN TITLE WITH GLITCH ===== -->
  <!-- Layer 1: Gold Base (Breathes) -->
  <text class="main-title" x="500" y="145" fill="url(#goldGrad)" style="animation: breathe 4s ease-in-out infinite;">VNA-07</text>
  
  <!-- Layer 2: Glitch Overlays (Offset colors jumping) -->
  <text class="main-title" x="500" y="145" fill="#b67c33" opacity="0" style="animation: glitch-offset 2.8s infinite linear;">VNA-07</text>
  <text class="main-title" x="500" y="145" fill="#a88b00" opacity="0" style="animation: glitch-offset 2.8s infinite linear 0.4s;">VNA-07</text>
  <text class="main-title" x="500" y="145" fill="#e29350" opacity="0" style="animation: glitch-offset 2.8s infinite linear 0.8s;">VNA-07</text>

  <!-- Subtitle + Blinking Cursor -->
  <text class="sub-title" x="500" y="205">SOFTWARE ENGINEER · RHODES UNI · BSC</text>
  <text class="cursor" x="736" y="205">▌</text>

  <!-- Bottom Status Bar -->
  <g opacity="0.3">
    <line x1="100" y1="275" x2="900" y2="275" stroke="#9f814f" stroke-width="0.5" />
    <circle cx="100" cy="275" r="2" fill="#e29350" />
    <circle cx="900" cy="275" r="2" fill="#e29350" />
  </g>

  <text x="110" y="292" font-family="'Courier New', monospace" font-size="9" fill="#9f814f" letter-spacing="2" opacity="0.6">
    ● SYSTEM: READY
  </text>
  <text x="880" y="292" font-family="'Courier New', monospace" font-size="9" fill="#9f814f" letter-spacing="2" opacity="0.6">
    v2.0 · DARK MATTER EDITION
  </text>
  
  <!-- Subtle Scanlines -->
  <g opacity="0.04">
    <line x1="0" y1="50" x2="1000" y2="50" stroke="#d3b976" stroke-width="1" />
    <line x1="0" y1="100" x2="1000" y2="100" stroke="#d3b976" stroke-width="1" />
    <line x1="0" y1="150" x2="1000" y2="150" stroke="#d3b976" stroke-width="1" />
    <line x1="0" y1="200" x2="1000" y2="200" stroke="#d3b976" stroke-width="1" />
    <line x1="0" y1="250" x2="1000" y2="250" stroke="#d3b976" stroke-width="1" />
    <line x1="0" y1="300" x2="1000" y2="300" stroke="#d3b976" stroke-width="1" />
  </g>
</svg>
